<svg xmlns="http://www.w3.org/2000/svg" viewBox="0 0 318.92 92.53"><defs><style>.felmo-logo-2{fill:#5fb34e}.felmo-logo-3{fill:#fff}</style></defs><g id="Ebenet_2" data-name="Ebenet 2"><g id="Ebenet_1-2" data-name="Ebenet 1"><path d="M111.08 23.63a28.35 28.35 0 016.46.66 37.36 37.36 0 014.18 1.17l-2 8.73a16.23 16.23 0 00-3.45-1.14 19.56 19.56 0 00-4.23-.43 10.78 10.78 0 00-4.27.74 6.78 6.78 0 00-2.79 2 7.81 7.81 0 00-1.49 3.18 17.93 17.93 0 00-.43 4.06v3.1h16.57v8.81h-16.57v36.8H92.5V42.47q0-8.8 4.63-13.82t13.95-5.02zM124 68.72a28.51 28.51 0 011.79-10.55 22 22 0 014.75-7.54 19.67 19.67 0 016.8-4.54 21 21 0 017.85-1.52q9.42 0 14.7 5.84t5.27 17.44v2c0 .76-.07 1.39-.13 2h-30.14a12 12 0 003.88 8.5q3.45 3 10 3a32.48 32.48 0 007-.7 28.74 28.74 0 005-1.48l1.4 8.63a16.78 16.78 0 01-2.4.92 33.51 33.51 0 01-3.49.87q-2 .39-4.23.66a41.26 41.26 0 01-4.62.26A28.05 28.05 0 01137 90.66a19.52 19.52 0 01-7.32-5 20.33 20.33 0 01-4.28-7.5 30.65 30.65 0 01-1.4-9.44zM154.6 64a13.78 13.78 0 00-.61-4.14 9.94 9.94 0 00-1.79-3.4 8.45 8.45 0 00-2.88-2.27 9.17 9.17 0 00-4-.83 9.42 9.42 0 00-4.27.92 9.71 9.71 0 00-3.1 2.4 10.92 10.92 0 00-2 3.4A18 18 0 00135 64zm37.59 28.19a28.6 28.6 0 01-7.8-1 12 12 0 01-4.93-2.75 9.66 9.66 0 01-2.57-4.45 22.33 22.33 0 01-.75-6.06V25.38l10.56-1.75v52.25a14.62 14.62 0 00.3 3.22 5.24 5.24 0 001.09 2.23 5 5 0 002.14 1.39 16.39 16.39 0 003.45.74zm36.02-24.86q0-7.15-1.79-10.34t-6.67-3.18a31.85 31.85 0 00-3.83.26c-1.4.18-2.45.32-3.14.44v36.8h-10.56V47.18a72.61 72.61 0 018-1.66 66.7 66.7 0 0110.42-.78 20.82 20.82 0 017.7 1.26 15 15 0 015 3.23 20.64 20.64 0 012.44-1.49 24.93 24.93 0 013.31-1.43 29.88 29.88 0 013.91-1.13 19.8 19.8 0 014.14-.44 21.64 21.64 0 018.76 1.53 12.82 12.82 0 015.41 4.27 16.65 16.65 0 012.69 6.63 45.76 45.76 0 01.74 8.5v25.64H254.2v-24q0-7.15-1.74-10.34t-6.72-3.18a13.9 13.9 0 00-4.79.83 15.69 15.69 0 00-3.41 1.61 22.8 22.8 0 011 4.62 47.88 47.88 0 01.27 5.24v25.2h-10.6zm90.71 1.13a29.64 29.64 0 01-1.57 9.86 22 22 0 01-4.45 7.59 20 20 0 01-6.9 4.88 22.49 22.49 0 01-9 1.74 22.12 22.12 0 01-8.9-1.74 20.06 20.06 0 01-6.89-4.88 22.37 22.37 0 01-4.49-7.59 28.64 28.64 0 01-1.62-9.86 28.28 28.28 0 011.62-9.81 21.94 21.94 0 014.53-7.54 19.9 19.9 0 016.94-4.84 22.22 22.22 0 018.81-1.7 22.59 22.59 0 018.85 1.7 19.41 19.41 0 016.93 4.84 22.33 22.33 0 014.49 7.54 28.28 28.28 0 011.65 9.81zm-10.82 0q0-6.79-2.92-10.77a10.36 10.36 0 00-16.31 0q-2.92 4-2.92 10.77t2.92 10.91a10.3 10.3 0 0016.31 0q2.93-4.02 2.92-10.91z" fill="#5a5a59"/><path class="felmo-logo-2" d="M39.34 41.85c-.06 0-5.09 0-5.09.11V91.2a.11.11 0 00.12.11h38.32V75.2a33.35 33.35 0 00-33.35-33.35zM52.31 33V0L39.86 8.37H6.91v11.91A12.71 12.71 0 0019.62 33h32.69z"/><circle class="felmo-logo-3" cx="37.53" cy="16.77" r="3.98"/><path class="felmo-logo-2" d="M27.29 66.25V45.8L23.56 37l-5 7.46L0 51.12c2.55 14.03 10.9 17.65 27.29 15.13z"/><circle class="felmo-logo-3" cx="14.89" cy="50.74" r="2.98"/></g></g></svg>